<svg t="1755325907291" fill="currentColor" viewBox="0 0 1024 1024" version="1.1" xmlns="http://www.w3.org/2000/svg" p-id="28009" width="200" height="200"><path d="M638.763 970.667h-256c-231.766 0-330.667-98.902-330.667-330.667V384c0-231.765 98.901-330.667 330.667-330.667h256c231.765 0 330.666 98.902 330.666 330.667v256c0 231.765-98.901 330.667-330.666 330.667z m-256-853.334c-196.864 0-266.667 69.803-266.667 266.667v256c0 196.864 69.803 266.667 266.667 266.667h256c196.864 0 266.666-69.803 266.666-266.667V384c0-196.864-69.76-266.667-266.666-266.667z" p-id="28010"></path><path d="M606.763 938.667V85.333a32.213 32.213 0 0 1 32-32 32.213 32.213 0 0 1 32 32v853.334a32 32 0 0 1-64 0z m-289.28-294.742a32.17 32.17 0 0 1 0-45.226l86.613-86.614-86.613-86.698a32 32 0 0 1 45.184-45.227l109.226 109.227a32.17 32.17 0 0 1 0 45.226L362.667 643.925a30.293 30.293 0 0 1-22.614 9.387 31.659 31.659 0 0 1-22.57-9.387z" p-id="28011"></path></svg>