<svg xmlns="http://www.w3.org/2000/svg" viewBox="0 0 24 24" fill="currentColor" class="w-6 h-6">
  <path fill-rule="evenodd" d="M12 17.5a5.5 5.5 0 1 0 0-11 5.5 5.5 0 0 0 0 11ZM12 20.5a8.5 8.5 0 1 0 0-17 8.5 8.5 0 0 0 0 17Z" clip-rule="evenodd" />
  <path d="M12 1.5a.75.75 0 0 1 .75.75v2.5a.75.75 0 0 1-1.5 0V2.25A.75.75 0 0 1 12 1.5ZM18.664 5.336a.75.75 0 0 1 .028 1.06l-1.768 1.768a.75.75 0 0 1-1.088-1.032l1.768-1.768a.75.75 0 0 1 1.06.004ZM22.5 12a.75.75 0 0 1-.75.75h-2.5a.75.75 0 0 1 0-1.5h2.5a.75.75 0 0 1 .75.75ZM18.692 18.664a.75.75 0 0 1-1.06.028l-1.768-1.768a.75.75 0 1 1 1.032-1.088l1.768 1.768a.75.75 0 0 1 .028 1.06ZM12 22.5a.75.75 0 0 1-.75-.75v-2.5a.75.75 0 0 1 1.5 0v2.5a.75.75 0 0 1-.75.75ZM5.336 18.692a.75.75 0 0 1-.028-1.06l1.768-1.768a.75.75 0 1 1 1.088 1.032l-1.768 1.768a.75.75 0 0 1-1.06-.004ZM1.5 12a.75.75 0 0 1 .75-.75h2.5a.75.75 0 0 1 0 1.5h-2.5A.75.75 0 0 1 1.5 12ZM5.308 5.336a.75.75 0 0 1 1.06-.028l1.768 1.768a.75.75 0 1 1-1.032 1.088L5.336 6.396a.75.75 0 0 1-.028-1.06Z" />
</svg>
